<?xml version="1.0" encoding="utf-8"?>
<!-- Generator: Adobe Illustrator 24.1.2, SVG Export Plug-In . SVG Version: 6.00 Build 0)  -->
<svg version="1.1" xmlns="http://www.w3.org/2000/svg" xmlns:xlink="http://www.w3.org/1999/xlink" x="0px" y="0px"
	 viewBox="0 0 914.3 260.1" style="enable-background:new 0 0 914.3 260.1;" xml:space="preserve">
<style type="text/css">
	.st0{fill:url(#SVGID_1_);}
	.st1{fill:url(#SVGID_2_);}
	.st2{fill:url(#SVGID_3_);}
	.st3{display:none;}
	.st4{display:inline;}
</style>
<g id="Layer_1">
	<g>
		<linearGradient id="SVGID_1_" gradientUnits="userSpaceOnUse" x1="207.2526" y1="69.7345" x2="82.3776" y2="183.3595">
			<stop  offset="0" style="stop-color:#AB6AFF"/>
			<stop  offset="1" style="stop-color:#543ED8"/>
		</linearGradient>
		<path class="st0" d="M29.6,195.5l47.1-8.8v28.9c0,17.5-12.4,32.5-29.6,35.8L0,260.1v-28.9C0,213.8,12.4,198.8,29.6,195.5z"/>
		<linearGradient id="SVGID_2_" gradientUnits="userSpaceOnUse" x1="179.3825" y1="39.105" x2="54.6306" y2="152.618">
			<stop  offset="0" style="stop-color:#AB6AFF"/>
			<stop  offset="1" style="stop-color:#543ED8"/>
		</linearGradient>
		<path class="st1" d="M29.6,113.6l119.2-22.5V120c0,17.5-12.4,32.5-29.6,35.8L0,178.2v-28.9C0,131.9,12.4,116.9,29.6,113.6z"/>
		<linearGradient id="SVGID_3_" gradientUnits="userSpaceOnUse" x1="145.8113" y1="2.21" x2="20.9363" y2="115.835">
			<stop  offset="0" style="stop-color:#AB6AFF"/>
			<stop  offset="1" style="stop-color:#543ED8"/>
		</linearGradient>
		<path class="st2" d="M191.3,0v28.9c0,17.5-12.4,32.5-29.6,35.8L0,95.7V66.8C0,49.3,12.4,34.3,29.6,31L191.3,0z"/>
	</g>
</g>
<g id="Layer_2" class="st3">
	<g class="st4">
		<path d="M250.8,117.6H235c0-6.9,1-12,2.9-15.3c1.9-3.3,4.9-4.9,8.9-4.9h4v-6.8c0-10,3-18.3,8.9-25c5.9-6.7,14.6-10,26.1-10
			c8,0,14.1,1.7,18.3,5.1c4.2,3.4,6.3,7.2,6.3,11.5c0,2-0.4,4-1.3,6c-0.9,2-2,3.7-3.5,5c-4.9-2.7-9.9-4-15-4c-4.3,0-7.4,1-9.4,2.9
			c-2,1.9-3,5.1-3,9.5v5.8h26.2c0,7.2-1.3,12.4-4,15.5c-2.7,3.1-7.1,4.7-13.2,4.7h-9v65.6c0,5.7-2.2,9.8-6.7,12.3
			c-4.5,2.5-11.4,3.7-20.7,3.7V117.6z"/>
		<path d="M352.2,125.4c-4.9,4.1-7.4,9.3-7.4,15.6v42.2c0,5.7-2.2,9.8-6.7,12.3c-4.5,2.5-11.4,3.7-20.7,3.7v-82.8
			c0-6.7,2.2-11.8,6.6-15.4s10.9-5.4,19.6-5.4v11.8c-2,2.1-3.7,4.4-5,6.8l1.4,0.8c8.4-12.9,18.9-19.4,31.4-19.4
			c6,0,10.5,1.6,13.6,4.8c3.1,3.2,4.6,7.3,4.6,12.2c0,3.7-1,7-3,9.8c-3.7-2.1-8.7-3.2-15-3.2C363.6,119.2,357.1,121.2,352.2,125.4z"
			/>
		<path d="M418.5,194.2c-7-3.3-12.6-7.9-16.7-13.6c-4.1-5.7-6.2-12.1-6.2-19.2v-25.6c0-7.5,2.1-14.3,6.3-20.5
			c4.2-6.2,9.8-11,16.9-14.5c7.1-3.5,14.7-5.2,22.8-5.2c8,0,15.4,1.6,22.1,4.9c6.7,3.3,12,7.9,15.9,13.8c3.9,5.9,5.8,12.6,5.8,20.1
			v10.8c0,3.2-1.2,5.9-3.6,8.1c-2.4,2.2-5.5,3.3-9.2,3.3h-50.4v2.8c0,5.3,1.6,9.7,4.9,13.1c3.3,3.4,8.1,5.1,14.5,5.1
			c6.3,0,10.9-1.4,13.8-4.1c2.9-2.7,4.4-6.2,4.4-10.3c2.7-0.3,4.7-0.4,6-0.4c5.5,0,9.7,1.1,12.6,3.4c2.9,2.3,4.4,5.6,4.4,10
			c0,3.6-1.8,7.2-5.4,10.8c-3.6,3.6-8.6,6.5-14.9,8.8c-6.3,2.3-13.4,3.4-21.1,3.4C433.1,199.2,425.5,197.5,418.5,194.2z
			 M460.6,137.2v-2.8c0-5.3-1.8-9.6-5.3-12.7c-3.5-3.1-8.2-4.7-13.9-4.7c-5.7,0-10.4,1.6-13.9,4.7c-3.5,3.1-5.3,7.4-5.3,12.7v2.8
			H460.6z"/>
		<path d="M503.4,116.4c0-6.7,2.2-11.8,6.6-15.4c4.4-3.6,10.9-5.4,19.6-5.4v11.8c-2,2.1-3.7,4.4-5,6.8l1.4,0.8
			c4-6.1,9.1-10.9,15.3-14.3c6.2-3.4,13.1-5.1,20.7-5.1c6.7,0,12.6,1.5,17.7,4.6c5.1,3.1,9.2,7.3,12.1,12.7
			c2.9,5.4,4.4,11.4,4.4,18.1v52.2c0,5.7-2.3,9.8-6.8,12.3c-4.5,2.5-11.4,3.7-20.6,3.7v-64c0-4.5-1.4-8.3-4.3-11.4
			c-2.9-3.1-6.9-4.6-12.1-4.6c-6.4,0-11.6,2.1-15.6,6.2c-4,4.1-6,9.3-6,15.6v42.2c0,5.7-2.2,9.8-6.7,12.3
			c-4.5,2.5-11.4,3.7-20.7,3.7V116.4z"/>
		<path d="M622.2,83.5c-3.4-3-5.1-6.9-5.1-11.7c0-4.8,1.7-8.7,5.1-11.7c3.4-3,7.6-4.5,12.7-4.5c5.1,0,9.3,1.5,12.7,4.5
			s5.1,6.9,5.1,11.7c0,4.8-1.7,8.7-5.1,11.7S640,88,634.9,88C629.9,88,625.6,86.5,622.2,83.5z M621.1,111.6c0-5.7,2.3-9.8,6.8-12.3
			c4.5-2.5,11.4-3.7,20.6-3.7v87.6c0,5.7-2.3,9.8-6.8,12.3c-4.5,2.5-11.4,3.7-20.6,3.7V111.6z"/>
		<path d="M684.5,117.6h-15.8c0-6.9,1-12,2.9-15.3c1.9-3.3,4.9-4.9,8.9-4.9h4v-6.8c0-10,3-18.3,8.9-25c5.9-6.7,14.6-10,26.1-10
			c8,0,14.1,1.7,18.3,5.1c4.2,3.4,6.3,7.2,6.3,11.5c0,2-0.4,4-1.3,6c-0.9,2-2,3.7-3.5,5c-4.9-2.7-9.9-4-15-4c-4.3,0-7.4,1-9.4,2.9
			c-2,1.9-3,5.1-3,9.5v5.8h26.2c0,7.2-1.3,12.4-4,15.5c-2.7,3.1-7.1,4.7-13.2,4.7h-9v65.6c0,5.7-2.2,9.8-6.7,12.3
			c-4.5,2.5-11.4,3.7-20.7,3.7V117.6z"/>
		<path d="M755.9,233.3c-3.2-3.9-4.8-9.7-4.8-17.3c3.9,0.8,7.4,1.2,10.6,1.2c3.3,0,6.1-0.5,8.2-1.5c2.1-1,4.2-2.8,6.1-5.5
			c1.9-2.7,4.1-6.7,6.5-12l3-6.8l-38.4-93.6c0.9-0.7,2.7-1.2,5.3-1.6c2.6-0.4,4.8-0.6,6.5-0.6c4.1,0,8,0.9,11.5,2.6
			c3.5,1.7,5.9,4.2,7.1,7.4l19.6,52.2l-3.4,9.8l1.8,0.6l24.4-62.6c1.3-3.3,3.7-5.8,7.1-7.5c3.4-1.7,7.2-2.5,11.5-2.5
			c1.7,0,3.9,0.2,6.5,0.6c2.6,0.4,4.4,0.9,5.3,1.6l-44.6,108.4c-4.7,11.3-9.8,19.7-15.5,25c-5.7,5.3-12.7,8-21.1,8
			C763.5,239.2,759.1,237.2,755.9,233.3z"/>
	</g>
</g>
<g id="Layer_3">
	<g>
		<path d="M297.4,83.1c-5-5-11.1-7.6-18.2-7.6c-7.1,0-13.2,2.5-18.3,7.6c-5,5-7.6,11.1-7.6,18.3v14.9h60.3v19.5h-60.3v50.4h-19.5
			v-84.9c0-12.5,4.4-23.2,13.3-32.1C256,60.4,266.7,56,279.2,56c12.5,0,23.1,4.4,32,13.3c7.4,7.4,11.7,16.2,12.9,26.3l-19.4,1.6
			C303.9,91.8,301.5,87.1,297.4,83.1z"/>
		<path d="M403.1,114.3c-5.3-5.6-12-8.4-20.1-8.4c-8.1,0-14.8,2.8-20,8.4c-5.6,6-8.3,13.7-8.3,23.1v48.9h-19.5V88.7h19.5v9.6
			c6.9-8,16.4-12,28.4-12c13.8,0,25.3,5,34.5,14.9c3.2,3.5,5.9,7.4,7.9,11.5l-17,9.8C407.1,119.4,405.3,116.7,403.1,114.3z"/>
		<path d="M510.3,182c-8.4,4.5-17.4,6.7-27,6.7c-14.2,0-26.3-5-36.2-14.9c-10-10-15-22.1-15-36.3c0-14.1,5-26.2,15-36.2
			c10-10,22-15,36.2-15c9,0,17.4,2.2,25.2,6.7c7.9,4.5,14.1,10.6,18.7,18.4l5.1,8.4l-70.8,40.9c6.1,5.7,13.3,8.6,21.7,8.6
			c6.2,0,12-1.3,17.4-4c5.4-2.8,9.9-6.6,13.4-11.4l16.7,10C525.6,171.5,518.7,177.6,510.3,182z M452.2,143.5l51.9-30
			c-1.6-1.4-3.4-2.6-5.2-3.7c-4.8-2.7-10-4-15.6-4c-8.8,0-16.3,3.1-22.4,9.2c-6.2,6.2-9.3,13.7-9.3,22.4
			C451.6,139.5,451.8,141.5,452.2,143.5z"/>
		<path d="M564.5,88.7v8.1c6.6-7,16-10.5,28.3-10.5c14.7,0,26.4,4.7,35,14.1c8.6,9.3,12.8,21.7,12.8,37.2v48.8h-19.5v-48.8
			c0-10.4-2.5-18.4-7.6-24c-4.7-5.2-11.6-7.7-20.7-7.7c-9,0-15.9,2.6-20.7,7.7c-5.1,5.6-7.6,13.5-7.6,23.9v48.9H545V88.7H564.5z"/>
		<path d="M682,59.2v19.5h-19.5V59.2H682z M682,88.7v97.6h-19.5V88.7H682z"/>
		<path d="M767.5,83.1c-5-5-11.1-7.6-18.2-7.6c-7.1,0-13.2,2.5-18.3,7.6c-5,5-7.6,11.1-7.6,18.3v14.9h60.3v19.5h-60.3v50.4H704
			v-84.9c0-12.5,4.4-23.2,13.3-32.1c8.8-8.8,19.5-13.3,32.1-13.3c12.5,0,23.1,4.4,32,13.3c7.4,7.4,11.7,16.2,12.9,26.3l-19.4,1.6
			C774,91.8,771.6,87.1,767.5,83.1z"/>
		<path d="M835.9,197.1c6.6,4.2,13.8,6.2,21.4,6.2c10.5,0,19.4-3.8,26.5-11.3c7.1-7.5,10.6-16.7,10.6-27.7
			c-8.3,11.3-19.9,17-34.8,17c-15.4,0-28.3-5.7-38.8-17.2c-10.3-11.3-15.5-25.1-15.5-41.3V88.7H825v34.2c0,11.3,3.5,20.7,10.4,28.2
			c6.6,7.2,14.7,10.8,24.3,10.8c9.7,0,17.9-3.6,24.4-10.8c6.9-7.6,10.4-17,10.4-28.2V88.7h19.4v75.8c0,16.1-5.3,29.8-16,41
			c-11,11.6-24.5,17.4-40.5,17.4c-11.6,0-22.4-3.2-32.4-9.7c-7.2-4.9-13.2-11.2-18.1-18.7l16.9-9.8
			C827.1,189.8,831.1,193.9,835.9,197.1z"/>
	</g>
</g>
</svg>
